<svg width="52" height="14" viewBox="0 0 52 14" fill="none" xmlns="http://www.w3.org/2000/svg">
<path d="M27.3842 8.00412C27.3842 8.85937 27.1333 9.53334 26.6362 10.0214C26.139 10.5141 25.4374 10.7604 24.5407 10.7604C23.6394 10.7604 22.9424 10.5141 22.4453 10.0214C21.9482 9.52869 21.6973 8.85472 21.6973 8.00412C21.6973 7.14423 21.9482 6.47026 22.4499 5.97756C22.9517 5.48951 23.6487 5.24316 24.5407 5.24316C25.4467 5.24316 26.1483 5.48951 26.6408 5.98221C27.1379 6.4749 27.3842 7.14887 27.3842 8.00412ZM25.3352 9.2684C25.4421 9.13825 25.5257 8.97557 25.5768 8.78964C25.6279 8.60372 25.6558 8.34343 25.6558 8.01342C25.6558 7.70664 25.6279 7.451 25.5722 7.24648C25.5164 7.04197 25.4374 6.87464 25.3399 6.74914C25.2423 6.62364 25.1215 6.53533 24.9821 6.47955C24.8427 6.42842 24.694 6.40053 24.5314 6.40053C24.3688 6.40053 24.2294 6.42377 24.104 6.46561C23.9785 6.50744 23.8577 6.59575 23.7462 6.7259C23.644 6.84675 23.565 7.00943 23.5046 7.22324C23.4442 7.43241 23.4164 7.69735 23.4164 8.01342C23.4164 8.29695 23.4442 8.5433 23.4953 8.75246C23.5464 8.96162 23.6254 9.12895 23.7276 9.25445C23.8252 9.3753 23.946 9.46361 24.0808 9.51939C24.2201 9.57517 24.3735 9.60306 24.55 9.60306C24.7033 9.60306 24.8474 9.57982 24.9821 9.52869C25.1215 9.47291 25.2377 9.38925 25.3352 9.2684Z" fill="white"/>
<path d="M33.6938 8.00412C33.6938 8.85937 33.4429 9.53334 32.9457 10.0214C32.4486 10.5141 31.747 10.7604 30.8503 10.7604C29.9489 10.7604 29.252 10.5141 28.7549 10.0214C28.2577 9.52869 28.0068 8.85472 28.0068 8.00412C28.0068 7.14423 28.2577 6.47026 28.7595 5.97756C29.2613 5.48951 29.9582 5.24316 30.8503 5.24316C31.7563 5.24316 32.4579 5.48951 32.9504 5.98221C33.4475 6.4749 33.6938 7.14887 33.6938 8.00412ZM31.6448 9.2684C31.7517 9.13825 31.8353 8.97557 31.8864 8.78964C31.9421 8.60372 31.9654 8.34343 31.9654 8.01342C31.9654 7.70664 31.9375 7.451 31.8817 7.24648C31.826 7.04197 31.747 6.87464 31.6494 6.74914C31.5519 6.62364 31.4311 6.53533 31.2917 6.47955C31.1523 6.42842 31.0036 6.40053 30.841 6.40053C30.6784 6.40053 30.539 6.42377 30.4136 6.46561C30.2881 6.50744 30.1673 6.59575 30.0558 6.7259C29.9536 6.84675 29.8746 7.00943 29.8142 7.22324C29.7538 7.43241 29.7259 7.69735 29.7259 8.01342C29.7259 8.29695 29.7538 8.5433 29.8049 8.75246C29.856 8.96162 29.935 9.12895 30.0372 9.25445C30.1348 9.3753 30.2556 9.46361 30.3903 9.51939C30.5297 9.57517 30.683 9.60306 30.8596 9.60306C31.0129 9.60306 31.1569 9.57982 31.2917 9.52869C31.4357 9.47291 31.5519 9.38925 31.6448 9.2684Z" fill="white"/>
<path d="M39.9292 5.40602L37.9267 10.5979H36.0403L34.0518 5.40137H35.8127L37.016 8.97109L38.2054 5.40137H39.9292V5.40602Z" fill="white"/>
<path d="M42.3313 10.5976H40.668V3.40234H42.3313V10.5976Z" fill="white"/>
<path d="M45.3792 10.5976H43.7158V3.40234H45.3792V10.5976Z" fill="white"/>
<path d="M49.1054 8.76192L50.2902 5.40137H52L49.1147 12.5036H47.312L48.1344 10.5607L46.1133 5.40137H47.8602L49.1054 8.76192Z" fill="white"/>
<path d="M17.3347 3.70898V4.97791H18.9098V7.72027C18.9098 7.99916 18.9052 8.23156 18.8959 8.41284C18.8866 8.59411 18.8448 8.75679 18.7751 8.91018C18.7007 9.06357 18.5753 9.18442 18.4034 9.27273C18.2268 9.36104 17.9806 9.40288 17.6553 9.40288C17.6553 9.40288 17.1582 9.42147 16.4102 9.28667V10.5742C16.6239 10.616 16.8701 10.6486 17.1489 10.6718C17.4277 10.695 17.7297 10.709 18.0456 10.709C18.5149 10.709 18.9052 10.6579 19.2257 10.551C19.5417 10.444 19.8158 10.2953 20.0388 10.1001C20.2525 9.91881 20.4105 9.6957 20.522 9.43076C20.6289 9.16582 20.6846 8.88229 20.6846 8.58017V3.70898H17.3347Z" fill="white"/>
<path d="M5.30164 5.29395H2.65332V7.94335H5.30164V5.29395Z" fill="white"/>
<path d="M9.2743 5.29395H6.62598V7.94335H9.2743V5.29395Z" fill="white"/>
<path d="M9.297 7.94336V8.02702C9.297 9.86301 7.80558 11.355 5.97034 11.355C4.1351 11.355 2.65761 9.86301 2.65761 8.02702V7.94336H0V8.02702C0 11.3179 2.6762 13.9952 5.96569 13.9952C9.25518 13.9952 11.9314 11.3179 11.9314 8.02702V7.94336H9.297Z" fill="white"/>
<path d="M6.625 0V2.6494H9.29655V5.29416H11.9356V0H6.625Z" fill="white"/>
<path d="M13.6456 0.525232C13.6456 0.822709 13.4133 1.05511 13.1113 1.05511C12.8093 1.05511 12.5723 0.822709 12.5723 0.525232C12.5677 0.232404 12.8046 0 13.1066 0C13.4086 0 13.6456 0.232404 13.6456 0.525232ZM12.7024 0.525232C12.7024 0.757636 12.8743 0.943559 13.1113 0.943559C13.339 0.943559 13.5109 0.757636 13.5109 0.52988C13.5109 0.297477 13.3436 0.106906 13.1066 0.106906C12.8697 0.106906 12.7024 0.292829 12.7024 0.525232ZM13.023 0.799469H12.9022V0.274236C12.9487 0.26494 13.0184 0.260292 13.102 0.260292C13.1996 0.260292 13.246 0.274236 13.2832 0.297477C13.3111 0.320717 13.3343 0.36255 13.3343 0.413679C13.3343 0.469455 13.2878 0.515936 13.2274 0.534528V0.539177C13.2786 0.557769 13.3064 0.594953 13.325 0.664675C13.339 0.743692 13.3529 0.776228 13.3622 0.794821H13.2321C13.2182 0.776228 13.2089 0.729748 13.1903 0.664675C13.181 0.608898 13.1485 0.581009 13.0834 0.581009H13.0277V0.799469H13.023ZM13.0277 0.501992H13.0834C13.1485 0.501992 13.2042 0.478752 13.2042 0.422975C13.2042 0.376494 13.167 0.343957 13.0927 0.343957C13.0602 0.343957 13.037 0.348606 13.0277 0.348606V0.501992Z" fill="white"/>
</svg>
