<svg width="100" height="84" viewBox="0 0 100 84" fill="none" xmlns="http://www.w3.org/2000/svg">
<path d="M32.0796 37.8874C29.611 37.1817 27.1423 36.8237 24.741 36.8237C21.0327 36.8237 17.9385 37.665 15.5392 38.6953C17.8523 30.288 23.4088 15.7814 34.4779 14.1478C35.503 13.9964 36.343 13.2605 36.6227 12.2699L39.0419 3.67883C39.2459 2.9523 39.125 2.17462 38.7076 1.54412C38.2902 0.913629 37.6194 0.49295 36.8677 0.390651C36.0507 0.280002 35.218 0.223633 34.3927 0.223633C21.1063 0.223633 7.94819 13.9922 2.39582 33.7067C-0.863485 45.2727 -1.8192 62.6615 6.2092 73.6064C10.7018 79.7308 17.2561 83.0012 25.6904 83.3279C25.7251 83.329 25.7587 83.33 25.7934 83.33C36.2 83.33 45.4281 76.3716 48.2353 66.41C49.9122 60.4547 49.1542 54.2093 46.0988 48.8198C43.0761 43.4909 38.0978 39.6066 32.0796 37.8874Z" fill="#C2489B" fill-opacity="0.15"/>
<path d="M96.991 48.8202C93.9683 43.4903 88.9899 39.6061 82.9717 37.8869C80.503 37.1813 78.0343 36.8232 75.6339 36.8232C71.9257 36.8232 68.8303 37.6646 66.431 38.6948C68.7441 30.2877 74.3008 15.7812 85.371 14.1476C86.3961 13.9962 87.2351 13.2603 87.5158 12.2697L89.9351 3.67879C90.1391 2.95227 90.0182 2.17459 89.6007 1.54411C89.1844 0.91362 88.5136 0.492947 87.7608 0.390649C86.9449 0.280001 86.1122 0.223633 85.2858 0.223633C71.9993 0.223633 58.841 13.9921 53.2875 33.7063C50.0292 45.2722 49.0735 62.6607 57.103 73.6076C61.5946 79.7308 68.1501 83.0022 76.5834 83.3279C76.6181 83.329 76.6517 83.33 76.6874 83.33C87.0932 83.33 96.3224 76.3717 99.1296 66.4102C100.804 60.455 100.045 54.2086 96.991 48.8202Z" fill="#C2489B" fill-opacity="0.15"/>
</svg>
