<svg width="32" height="32" viewBox="0 0 32 32" fill="none" xmlns="http://www.w3.org/2000/svg">
<g opacity="0.25">
<path d="M2.5 15.5C2.49999 15.5221 2.50145 15.5442 2.50438 15.5661L4.38869 29.6982C4.43766 30.0581 4.61516 30.3882 4.88843 30.6274C5.1617 30.8667 5.51229 30.999 5.8755 31H27C27.3977 30.9995 27.779 30.8414 28.0602 30.5602C28.3414 30.2789 28.4996 29.8977 28.5 29.5V27.5331L30.4956 12.5661C30.4956 12.5639 30.4956 12.5618 30.4961 12.5599C30.4973 12.5497 30.4979 12.5395 30.4986 12.5292C30.499 12.5217 30.4996 12.5142 30.4997 12.5067C30.4997 12.5045 30.4997 12.5024 30.4997 12.5005V10.5C30.4997 10.3674 30.447 10.2402 30.3532 10.1464C30.2595 10.0527 30.1323 9.99998 29.9997 9.99998H20C19.8674 9.99998 19.7402 10.0527 19.6464 10.1464C19.5527 10.2402 19.5 10.3674 19.5 10.5V12.5C19.5 12.5022 19.5 12.5044 19.5 12.5062C19.5 12.5137 19.5007 12.5212 19.5011 12.5287C19.5018 12.539 19.5024 12.5492 19.5036 12.5594C19.5036 12.5615 19.5036 12.5636 19.5041 12.5656L20.4259 19.479C19.4206 19.4027 19.1099 19.1306 19.0189 19.003C18.9865 18.9572 18.9648 18.9046 18.9555 18.8492C18.9462 18.7939 18.9494 18.7371 18.9651 18.6832C18.9988 18.6091 19.0131 18.5276 19.0066 18.4465C19 18.3654 18.9728 18.2873 18.9276 18.2196C18.8806 18.1499 18.8168 18.0932 18.742 18.0548C18.6673 18.0164 18.584 17.9976 18.5 18C17.5052 18 16.7384 18.1937 16.1069 18.4816L16.4956 15.5661C16.4985 15.5442 16.5 15.5221 16.5 15.5C16.4991 14.3019 16.1674 13.1274 15.5415 12.1058C14.9156 11.0842 14.0198 10.2553 12.9528 9.7103C12.9955 9.6191 13.0095 9.51714 12.9932 9.4178L12.4932 6.41779C12.4737 6.30105 12.4135 6.19499 12.3232 6.11848C12.2329 6.04197 12.1184 5.99999 12 5.99998H11.5V3.99998H15C15.1326 3.99998 15.2598 3.9473 15.3536 3.85354C15.4473 3.75977 15.5 3.63259 15.5 3.49998V1.49998C15.5 1.43152 15.4859 1.36379 15.4587 1.30099C15.4314 1.23818 15.3916 1.18164 15.3416 1.13487C15.2916 1.0881 15.2325 1.0521 15.1681 1.02909C15.1036 1.00608 15.0351 0.996554 14.9668 1.00111L7.46675 1.50111C7.36771 1.50771 7.27288 1.54364 7.19434 1.60433C7.11579 1.66501 7.05708 1.7477 7.02569 1.84186L6.52569 3.34186C6.50063 3.41702 6.4938 3.49705 6.50574 3.57537C6.51769 3.65369 6.54807 3.72805 6.59439 3.79232C6.64071 3.85659 6.70165 3.90894 6.77217 3.94504C6.84269 3.98115 6.92078 3.99998 7 3.99998H7.5V5.99998H7C6.88164 5.99999 6.76712 6.04197 6.67682 6.11848C6.58651 6.19499 6.52627 6.30105 6.50681 6.41779L6.00681 9.4178C5.99046 9.51714 6.00454 9.6191 6.04719 9.7103C4.98023 10.2553 4.08444 11.0842 3.45854 12.1058C2.83265 13.1274 2.50095 14.3019 2.5 15.5ZM23 30H10.9354C10.82 29.9999 10.7093 29.954 10.6277 29.8723C10.546 29.7907 10.5001 29.68 10.5 29.5645V24.4354C10.5001 24.32 10.546 24.2093 10.6277 24.1276C10.7093 24.046 10.82 24.0001 10.9354 24H23.0646C23.18 24.0001 23.2907 24.046 23.3723 24.1276C23.454 24.2093 23.4999 24.32 23.5 24.4354V29.5645C23.4999 29.68 23.454 29.7907 23.3723 29.8723C23.2907 29.954 23.18 29.9999 23.0646 30H23ZM12 22H22V23H12V22ZM27.5 29.5C27.4999 29.6325 27.4471 29.7596 27.3534 29.8534C27.2597 29.9471 27.1326 29.9998 27 30H24.4323C24.4772 29.8592 24.5001 29.7123 24.5 29.5645V28H27.5V29.5ZM27.5625 27H24.5V24.4354C24.4996 24.0549 24.3482 23.69 24.0791 23.4209C23.81 23.1518 23.4451 23.0004 23.0646 23H23V21.5C23 21.486 22.9991 21.4722 22.9979 21.4585C22.9979 21.4565 22.9974 21.453 22.9971 21.4499V21.4482C22.9595 21.1205 22.8604 20.8028 22.7051 20.5118C22.5798 20.2673 22.4015 20.0538 22.1834 19.8868C21.9652 19.7198 21.7125 19.6035 21.4438 19.5465L20.5711 13H29.4289L27.5625 27ZM20.5 11H29.5V12H20.5V11ZM18.1824 19.5514C18.6052 20.1809 19.5531 20.5 21 20.5C21.375 20.5 21.6333 20.648 21.8137 20.966C21.82 20.9774 21.8263 20.9887 21.832 21H14.3138C14.5272 20.8365 14.7304 20.6648 14.9318 20.4944C15.7459 19.8054 16.5197 19.1506 17.9697 19.0225C18.0019 19.212 18.0744 19.3924 18.1824 19.5514ZM7.86819 2.47654L14.5 2.03442V2.99998H7.69375L7.86819 2.47654ZM8.5 3.99998H10.5V5.99998H8.5V3.99998ZM7.09025 8.99998L7.42356 6.99998H11.5764L11.9097 8.99998H7.09025ZM9 9.99998H10C11.4526 10.0016 12.8457 10.5771 13.8758 11.6012C14.906 12.6253 15.4898 14.0149 15.5 15.4675L15.0098 19.1437C14.7524 19.3363 14.5154 19.5366 14.2858 19.7309C13.4812 20.4119 12.7862 21 11.5 21C11.3674 21 11.2402 21.0527 11.1464 21.1464C11.0527 21.2402 11 21.3674 11 21.5V23H10.9354C10.5549 23.0004 10.19 23.1518 9.92091 23.4209C9.6518 23.69 9.50043 24.0549 9.5 24.4354V29.5645C9.49995 29.7123 9.52278 29.8592 9.56769 30H5.8755C5.75443 29.9996 5.63757 29.9555 5.54648 29.8758C5.45538 29.796 5.39621 29.686 5.37988 29.566L3.5 15.4675C3.51022 14.0149 4.094 12.6253 5.12416 11.6012C6.15433 10.5771 7.54742 10.0016 9 9.99998Z" fill="white"/>
<path d="M17 25C16.6044 25 16.2178 25.1173 15.8889 25.3371C15.56 25.5568 15.3036 25.8692 15.1522 26.2346C15.0009 26.6001 14.9613 27.0022 15.0384 27.3902C15.1156 27.7781 15.3061 28.1345 15.5858 28.4142C15.8655 28.6939 16.2219 28.8844 16.6098 28.9616C16.9978 29.0387 17.3999 28.9991 17.7654 28.8478C18.1308 28.6964 18.4432 28.44 18.663 28.1111C18.8827 27.7822 19 27.3956 19 27C18.9994 26.4698 18.7885 25.9614 18.4136 25.5864C18.0386 25.2115 17.5303 25.0006 17 25ZM17 28C16.8022 28 16.6089 27.9414 16.4444 27.8315C16.28 27.7216 16.1518 27.5654 16.0761 27.3827C16.0004 27.2 15.9806 26.9989 16.0192 26.8049C16.0578 26.6109 16.153 26.4327 16.2929 26.2929C16.4328 26.153 16.6109 26.0578 16.8049 26.0192C16.9989 25.9806 17.2 26.0004 17.3827 26.0761C17.5654 26.1518 17.7216 26.28 17.8315 26.4444C17.9414 26.6089 18 26.8022 18 27C17.9997 27.2651 17.8942 27.5193 17.7068 27.7068C17.5193 27.8942 17.2651 27.9997 17 28Z" fill="white"/>
<path d="M25 18C26.425 18 27.5 17.3552 27.5 16.5C27.5 15.6448 26.425 15 25 15C23.575 15 22.5 15.6448 22.5 16.5C22.5 17.3552 23.575 18 25 18ZM25 16C25.968 16 26.5 16.3756 26.5 16.5C26.5 16.6244 25.968 17 25 17C24.032 17 23.5 16.6244 23.5 16.5C23.5 16.3756 24.032 16 25 16Z" fill="white"/>
<path d="M6.5 17.5H12.5C12.6326 17.5 12.7598 17.4473 12.8536 17.3536C12.9473 17.2598 13 17.1326 13 17V14C13 13.8674 12.9473 13.7402 12.8536 13.6464C12.7598 13.5527 12.6326 13.5 12.5 13.5H6.5C6.36739 13.5 6.24021 13.5527 6.14645 13.6464C6.05268 13.7402 6 13.8674 6 14V17C6 17.1326 6.05268 17.2598 6.14645 17.3536C6.24021 17.4473 6.36739 17.5 6.5 17.5ZM7 14.5H12V16.5H7V14.5Z" fill="white"/>
</g>
</svg>
